<?xml version="1.0" standalone="no"?>
<!DOCTYPE svg PUBLIC "-//W3C//DTD SVG 20010904//EN"
 "http://www.w3.org/TR/2001/REC-SVG-20010904/DTD/svg10.dtd">
<svg version="1.0" xmlns="http://www.w3.org/2000/svg"
 width="225.000000pt" height="225.000000pt" viewBox="0 0 225.000000 225.000000"
 preserveAspectRatio="xMidYMid meet">
<metadata>
Created by potrace 1.15, written by Peter Selinger 2001-2017
</metadata>
<g transform="translate(0.000000,225.000000) scale(0.100000,-0.100000)"
fill="#000000" stroke="none">
<path d="M790 1305 l0 -405 335 0 335 0 0 245 0 245 -175 0 -175 0 0 -85 0
-85 90 0 90 0 0 -75 0 -75 -162 2 -163 3 -3 318 -2 317 -85 0 -85 0 0 -405z"/>
<path d="M608 715 c-35 -19 -48 -44 -48 -88 0 -64 59 -103 127 -85 94 25 80
170 -17 183 -21 3 -46 -1 -62 -10z"/>
<path d="M1500 723 c-75 -27 -89 -127 -25 -169 69 -45 155 0 155 82 0 63 -69
109 -130 87z"/>
<path d="M200 630 l0 -90 64 0 c45 0 69 5 80 16 20 19 20 48 1 64 -11 9 -12
17 -4 32 8 15 8 27 0 44 -10 22 -17 24 -76 24 l-65 0 0 -90z"/>
<path d="M990 630 c0 -83 1 -90 20 -90 15 0 20 7 20 29 0 16 6 34 14 40 10 9
19 3 41 -29 19 -28 35 -40 52 -40 l24 0 -33 46 c-18 25 -36 48 -41 51 -5 3 8
23 29 44 38 39 38 39 12 39 -18 0 -34 -11 -52 -35 -15 -19 -31 -35 -37 -35 -5
0 -9 16 -9 35 0 28 -4 35 -20 35 -19 0 -20 -7 -20 -90z"/>
<path d="M1890 630 c0 -73 3 -90 15 -90 12 0 15 13 15 55 0 30 3 55 8 55 4 0
25 -25 46 -55 23 -32 47 -55 58 -55 16 0 18 10 18 90 0 83 -1 90 -20 90 -18 0
-20 -7 -20 -57 l0 -57 -42 57 c-24 33 -49 57 -60 57 -16 0 -18 -10 -18 -90z"/>
</g>
</svg>
